Coordinates
version=1
nRows=17
nColumns=33
inDegrees=yes

Units are S.I. units (second, meters, Newtons, ...)
Angles are in degrees.

endheader
time	ground_thorax_rot_x	ground_thorax_rot_y	ground_thorax_rot_z	ground_thorax_tx	ground_thorax_ty	ground_thorax_tz	clav_prot_r	clav_elev_r	scapula_abduction_r	scapula_elevation_r	scapula_upward_rot_r	scapula_winging_r	shoulder_elv_r	plane_of_elev_r	axial_rot_r	elbow_flexion_r	pro_sup_r	wrist_flex_r	wrist_dev_r	clav_prot_l	clav_elev_l	scapula_abduction_l	scapula_elevation_l	scapula_upward_rot_l	scapula_winging_l	shoulder_elv_l	plane_of_elev_l	axial_rot_l	elbow_flexion_l	pro_sup_l	wrist_flex_l	wrist_dev_l
      1.37000000	      1.36621243	     -0.89239418	     -8.25929192	     -0.08170298	      1.04867625	      0.00109615	    -13.40262238	     -6.85470347	    -13.77067942	     -0.96045004	      6.53362298	      0.14995819	     53.01674229	    -49.99323501	     61.21130641	     58.32335050	      4.60473820	     16.61018634	      5.92820114	     -7.71753701	     -3.66556944	      7.59205492	     -4.83997770	     -4.18586102	     -1.33489405	     53.09435707	    -54.19397151	    -41.47842282	     57.11172511	      5.06426959	      2.98930442	    -24.99999983
      1.38000000	      1.36711538	     -0.89118441	     -8.25907461	     -0.08188423	      1.04847840	      0.00115717	    -13.40317023	     -6.85630099	    -13.77064814	     -0.96228469	      6.53268921	      0.14949160	     53.01587068	    -49.99250545	     61.21131772	     58.32245791	      4.60540021	     16.61006430	      5.92810595	     -7.71801799	     -3.66575585	      7.59317319	     -4.84065990	     -4.18896712	     -1.33469847	     53.09236719	    -54.19619547	    -41.48004388	     57.10963253	      5.06530282	      2.98959931	    -24.99993726
      1.39000000	      1.36838564	     -0.88995219	     -8.25952049	     -0.08210815	      1.04829086	      0.00122038	    -13.40364964	     -6.85898165	    -13.77148150	     -0.96412785	      6.53125661	      0.14920093	     53.01402535	    -49.99204926	     61.21145319	     58.32140728	      4.60613823	     16.60994122	      5.92799425	     -7.71833293	     -3.66628320	      7.59527923	     -4.84222618	     -4.19393838	     -1.33463910	     53.08858206	    -54.19987982	    -41.48269906	     57.10691853	      5.06653365	      2.99008319	    -24.99982024
      1.40000000	      1.38456156	     -0.96250400	     -8.06208394	     -0.08214699	      1.04906903	      0.00136401	    -13.42026240	     -6.96088941	    -13.82228807	     -1.02717485	      6.44429820	      0.20955161	     53.00276081	    -49.98214775	     61.22463881	     57.94166745	      4.79091935	     16.57129905	      5.87010902	     -7.71477532	     -3.76283069	      7.63216473	     -4.82124178	     -4.37328317	     -1.39747210	     53.06500453	    -54.24242823	    -41.58499435	     56.65715329	      5.26530447	      2.95368961	    -24.99999983
      1.41000000	      1.38301902	     -0.96193236	     -8.06498646	     -0.08241980	      1.04890646	      0.00145114	    -13.42095004	     -6.96136616	    -13.82402014	     -1.02704145	      6.44276691	      0.20828590	     53.00218628	    -49.98377232	     61.22501897	     57.94059613	      4.79156464	     16.57133077	      5.86994799	     -7.71566148	     -3.76374151	      7.63426816	     -4.82194474	     -4.37713837	     -1.39655829	     53.06171588	    -54.24470425	    -41.58666427	     56.65684370	      5.26607874	      2.95371791	    -24.99999983
      1.42000000	      1.37635481	     -0.97506317	     -8.08043685	     -0.08249724	      1.04872072	      0.00149757	    -13.42925603	     -6.96552418	    -13.84458514	     -1.02654213	      6.42863765	      0.21374275	     52.99006719	    -49.99934724	     61.22718480	     57.93116364	      4.79877646	     16.57270493	      5.86687663	     -7.71754592	     -3.76995797	      7.64975051	     -4.82951908	     -4.41322501	     -1.40947257	     53.02433273	    -54.26217991	    -41.60578517	     56.65873250	      5.27468918	      2.95219480	    -24.99999983
      1.43000000	      1.37486372	     -0.97560408	     -8.08198756	     -0.08278618	      1.04858837	      0.00160245	    -13.43056375	     -6.96620221	    -13.84692498	     -1.02672074	      6.42722878	      0.21298709	     52.98959030	    -50.00118533	     61.22712279	     57.92921625	      4.79939933	     16.57262722	      5.86653191	     -7.71859364	     -3.77132883	      7.65218763	     -4.83012868	     -4.41747152	     -1.40844948	     53.02040820	    -54.26432437	    -41.60743239	     56.65849179	      5.27543538	      2.95198022	    -24.99999983
      1.44000000	      1.39248047	     -1.11048025	     -8.06602023	     -0.08243875	      1.04899925	      0.00168982	    -13.60492983	     -7.04675946	    -14.17718959	     -1.07660085	      6.33648650	      0.28977017	     53.08283134	    -49.68789448	     61.34216241	     57.51428649	      5.98896578	     17.35988021	      5.06278720	     -7.89618683	     -4.01021586	      8.09645664	     -4.79567034	     -4.92017692	     -1.63630178	     53.36090641	    -54.18262886	    -41.57283059	     56.62456181	      6.45911617	      1.53655313	    -24.99999983
      1.45000000	      1.38880557	     -1.10993006	     -8.06829980	     -0.08271402	      1.04887313	      0.00180115	    -13.60551718	     -7.04670499	    -14.17908234	     -1.07584737	      6.33430782	      0.28826573	     53.08200286	    -49.69058981	     61.34308371	     57.51308268	      5.98927741	     17.35949188	      5.06302636	     -7.89691641	     -4.01222049	      8.09837407	     -4.79548759	     -4.92448744	     -1.63535130	     53.35638536	    -54.18407307	    -41.57512214	     56.62477389	      6.45968542	      1.53696167	    -24.99999983
      1.46000000	      1.36332137	     -1.12128501	     -8.06519050	     -0.08281657	      1.04883872	      0.00179290	    -13.61150746	     -7.04781205	    -14.19964557	     -1.07102669	      6.31307222	      0.29530458	     53.06176564	    -49.71437296	     61.35240128	     57.50953572	      5.99204313	     17.35728987	      5.06508588	     -7.89869662	     -4.03305891	      8.11006778	     -4.79065236	     -4.96141314	     -1.64890198	     53.30733657	    -54.18764044	    -41.59885313	     56.63514813	      6.46566397	      1.53921490	    -24.99999983
      1.47000000	      1.36027678	     -1.12115817	     -8.06423113	     -0.08304363	      1.04869919	      0.00189932	    -13.61262736	     -7.04935558	    -14.20191062	     -1.07083289	      6.31113569	      0.29438081	     53.06012473	    -49.71642871	     61.35287488	     57.50865137	      5.99230158	     17.35699861	      5.06515579	     -7.89955649	     -4.03517003	      8.11234731	     -4.78970700	     -4.96638606	     -1.64912687	     53.30166625	    -54.18884259	    -41.60125627	     56.63572943	      6.46635301	      1.53931664	    -24.99999983
      1.48000000	      1.34837665	     -1.17783693	     -7.94171121	     -0.08315363	      1.04897929	      0.00190181	    -13.65812836	     -7.07023425	    -14.27726236	     -1.09062661	      6.30957416	      0.30882105	     53.06524875	    -49.76452739	     61.32618043	     57.43699415	      6.00414402	     17.33577941	      5.05164027	     -7.91507288	     -4.06257902	      8.16778491	     -4.79605849	     -5.04974186	     -1.68107037	     53.22073727	    -54.23520664	    -41.62527629	     56.60248850	      6.50374353	      1.50833515	    -24.99999983
      1.49000000	      1.34335201	     -1.17560082	     -7.94146147	     -0.08333304	      1.04883252	      0.00200647	    -13.65853058	     -7.07003366	    -14.27877660	     -1.09049336	      6.30767540	      0.30893600	     53.06369649	    -49.76638280	     61.32717615	     57.43679051	      6.00442676	     17.33575483	      5.05178397	     -7.91763974	     -4.06520823	      8.16924844	     -4.79492175	     -5.05444100	     -1.68141199	     53.21571070	    -54.23614309	    -41.62710542	     56.60241087	      6.50448154	      1.50808485	    -24.99999983
      1.50000000	      1.31650972	     -1.17612895	     -7.89396361	     -0.08345985	      1.04896293	      0.00197375	    -13.66877299	     -7.08262873	    -14.30564608	     -1.09315493	      6.28089649	      0.32207912	     53.02375476	    -49.78526797	     61.33920113	     57.45240498	      6.00898345	     17.33976182	      5.05270991	     -7.92682228	     -4.09770889	      8.19341778	     -4.78053629	     -5.09603686	     -1.70309014	     53.16477785	    -54.24103368	    -41.64154909	     56.59516784	      6.51863008	      1.49464978	    -24.99999983
      1.51000000	      1.28154399	     -1.17758089	     -7.87363439	     -0.08359461	      1.04895503	      0.00194466	    -13.67313140	     -7.08139706	    -14.31507532	     -1.09221322	      6.28042520	      0.32184069	     53.02130785	    -49.79050853	     61.33807904	     57.45618084	      6.01046526	     17.34108355	      5.05170949	     -7.93006820	     -4.11441019	      8.20050097	     -4.77191464	     -5.11142313	     -1.70942969	     53.14637707	    -54.23947624	    -41.64698455	     56.59017310	      6.52449877	      1.48860915	    -24.99999983
      1.52000000	      1.27688880	     -1.17665428	     -7.86988985	     -0.08368485	      1.04882984	      0.00203369	    -13.67361446	     -7.08229311	    -14.31616029	     -1.09291896	      6.28008556	      0.32188280	     53.02011042	    -49.79051636	     61.33797802	     57.45733272	      6.01061647	     17.34141263	      5.05165760	     -7.93069674	     -4.11690291	      8.20195619	     -4.77015400	     -5.11466430	     -1.70997033	     53.14260358	    -54.23943666	    -41.64831271	     56.58982939	      6.52521279	      1.48807442	    -24.99999983
      1.53000000	      1.20062066	     -1.25202668	     -7.72239345	     -0.08371649	      1.04916218	      0.00218496	    -13.72315768	     -7.09021451	    -14.40185114	     -1.10179762	      6.27797770	      0.33524787	     52.98056766	    -49.82488732	     61.32927552	     57.53291436	      6.03381510	     17.36980987	      5.04859516	     -7.94936992	     -4.14684140	      8.25580432	     -4.77083800	     -5.19121376	     -1.74132386	     53.13594147	    -54.32355046	    -41.64383045	     56.42031656	      6.59568760	      1.39638723	    -24.99999983
